<svg xmlns="http://www.w3.org/2000/svg" viewBox="0 0 256 256" width="256" height="256">
  <rect width="256" height="256" fill="#1a6aff"/>
  <g fill="none" stroke="#a0d0ff" stroke-width="2.5">
    <path d="M0,60 Q32,30 64,60 Q96,90 128,60 Q160,30 192,60 Q224,90 256,60"/>
    <path d="M0,100 Q32,70 64,100 Q96,130 128,100 Q160,70 192,100 Q224,130 256,100"/>
    <path d="M0,140 Q32,110 64,140 Q96,170 128,140 Q160,110 192,140 Q224,170 256,140"/>
    <path d="M0,180 Q32,150 64,180 Q96,210 128,180 Q160,150 192,180 Q224,210 256,180"/>
    <path d="M0,220 Q32,190 64,220 Q96,250 128,220 Q160,190 192,220 Q224,250 256,220"/>
  </g>
</svg>