<svg xmlns="http://www.w3.org/2000/svg" viewBox="0 0 256 256" width="256" height="256">
  <rect width="256" height="256" fill="#1a7a7a"/>
  <g fill="none" stroke="#a0e0d8" stroke-width="1.5">
    <polygon points="40,23 60,23 70,40 60,57 40,57 30,40"/>
    <polygon points="80,23 100,23 110,40 100,57 80,57 70,40"/>
    <polygon points="120,23 140,23 150,40 140,57 120,57 110,40"/>
    <polygon points="160,23 180,23 190,40 180,57 160,57 150,40"/>
    <polygon points="200,23 220,23 230,40 220,57 200,57 190,40"/>
    <polygon points="20,57 40,57 50,74 40,91 20,91 10,74"/>
    <polygon points="60,57 80,57 90,74 80,91 60,91 50,74"/>
    <polygon points="100,57 120,57 130,74 120,91 100,91 90,74"/>
    <polygon points="140,57 160,57 170,74 160,91 140,91 130,74"/>
    <polygon points="180,57 200,57 210,74 200,91 180,91 170,74"/>
    <polygon points="220,57 240,57 250,74 240,91 220,91 210,74"/>
    <polygon points="40,91 60,91 70,108 60,125 40,125 30,108"/>
    <polygon points="80,91 100,91 110,108 100,125 80,125 70,108"/>
    <polygon points="120,91 140,91 150,108 140,125 120,125 110,108"/>
    <polygon points="160,91 180,91 190,108 180,125 160,125 150,108"/>
    <polygon points="200,91 220,91 230,108 220,125 200,125 190,108"/>
    <polygon points="20,125 40,125 50,142 40,159 20,159 10,142"/>
    <polygon points="60,125 80,125 90,142 80,159 60,159 50,142"/>
    <polygon points="100,125 120,125 130,142 120,159 100,159 90,142"/>
    <polygon points="140,125 160,125 170,142 160,159 140,159 130,142"/>
    <polygon points="180,125 200,125 210,142 200,159 180,159 170,142"/>
    <polygon points="220,125 240,125 250,142 240,159 220,159 210,142"/>
    <polygon points="40,159 60,159 70,176 60,193 40,193 30,176"/>
    <polygon points="80,159 100,159 110,176 100,193 80,193 70,176"/>
    <polygon points="120,159 140,159 150,176 140,193 120,193 110,176"/>
    <polygon points="160,159 180,159 190,176 180,193 160,193 150,176"/>
    <polygon points="200,159 220,159 230,176 220,193 200,193 190,176"/>
    <polygon points="20,193 40,193 50,210 40,227 20,227 10,210"/>
    <polygon points="60,193 80,193 90,210 80,227 60,227 50,210"/>
    <polygon points="100,193 120,193 130,210 120,227 100,227 90,210"/>
    <polygon points="140,193 160,193 170,210 160,227 140,227 130,210"/>
    <polygon points="180,193 200,193 210,210 200,227 180,227 170,210"/>
    <polygon points="220,193 240,193 250,210 240,227 220,227 210,210"/>
  </g>
</svg>