<svg xmlns="http://www.w3.org/2000/svg" viewBox="0 0 256 256" width="256" height="256">
  <rect width="256" height="256" fill="#1a5a2a"/>
  <g fill="none" stroke="#80c890" stroke-width="2">
    <path d="M128,240 L128,60"/>
    <path d="M128,200 Q100,180 80,150 Q70,130 90,130 Q110,140 128,170"/>
    <path d="M128,170 Q156,150 176,120 Q186,100 166,100 Q146,110 128,140"/>
    <path d="M128,140 Q100,120 85,90 Q78,70 98,75 Q115,85 128,110"/>
    <path d="M128,110 Q150,95 162,72 Q168,55 152,58 Q140,66 128,85"/>
    <path d="M128,85 Q112,72 105,55 Q102,42 114,48 Q122,56 128,70"/>
  </g>
</svg>