<svg xmlns="http://www.w3.org/2000/svg" viewBox="0 0 256 256" width="256" height="256">
  <rect width="256" height="256" fill="#5a5f6b"/>
  <g stroke="#9aa0ac" stroke-width="1.5">
    <line x1="0" y1="0" x2="256" y2="256"/>
    <line x1="32" y1="0" x2="256" y2="224"/>
    <line x1="64" y1="0" x2="256" y2="192"/>
    <line x1="96" y1="0" x2="256" y2="160"/>
    <line x1="128" y1="0" x2="256" y2="128"/>
    <line x1="160" y1="0" x2="256" y2="96"/>
    <line x1="192" y1="0" x2="256" y2="64"/>
    <line x1="224" y1="0" x2="256" y2="32"/>
    <line x1="0" y1="32" x2="224" y2="256"/>
    <line x1="0" y1="64" x2="192" y2="256"/>
    <line x1="0" y1="96" x2="160" y2="256"/>
    <line x1="0" y1="128" x2="128" y2="256"/>
    <line x1="0" y1="160" x2="96" y2="256"/>
    <line x1="0" y1="192" x2="64" y2="256"/>
    <line x1="0" y1="224" x2="32" y2="256"/>
    <line x1="256" y1="0" x2="0" y2="256"/>
    <line x1="224" y1="0" x2="0" y2="224"/>
    <line x1="192" y1="0" x2="0" y2="192"/>
    <line x1="160" y1="0" x2="0" y2="160"/>
    <line x1="128" y1="0" x2="0" y2="128"/>
    <line x1="96" y1="0" x2="0" y2="96"/>
    <line x1="64" y1="0" x2="0" y2="64"/>
    <line x1="32" y1="0" x2="0" y2="32"/>
    <line x1="256" y1="32" x2="32" y2="256"/>
    <line x1="256" y1="64" x2="64" y2="256"/>
    <line x1="256" y1="96" x2="96" y2="256"/>
    <line x1="256" y1="128" x2="128" y2="256"/>
    <line x1="256" y1="160" x2="160" y2="256"/>
    <line x1="256" y1="192" x2="192" y2="256"/>
    <line x1="256" y1="224" x2="224" y2="256"/>
  </g>
</svg>