<svg xmlns="http://www.w3.org/2000/svg" viewBox="0 0 256 256" width="256" height="256">
  <rect width="256" height="256" fill="#333"/>
  <g fill="none" stroke="#d4a843" stroke-width="2">
    <path d="M128,128 Q128,108 138,98 Q148,88 148,68 Q148,48 138,38 Q128,28 128,8"/>
    <path d="M128,128 Q148,128 158,118 Q168,108 188,108 Q208,108 218,118 Q228,128 248,128"/>
    <path d="M128,128 Q128,148 138,158 Q148,168 148,188 Q148,208 138,218 Q128,228 128,248"/>
    <path d="M128,128 Q108,128 98,138 Q88,148 68,148 Q48,148 38,138 Q28,128 8,128"/>
    <circle cx="128" cy="128" r="16" fill="#d4a843" stroke="none"/>
    <circle cx="128" cy="128" r="32"/>
    <circle cx="128" cy="128" r="56"/>
    <circle cx="128" cy="128" r="90"/>
  </g>
</svg>