<svg xmlns="http://www.w3.org/2000/svg" viewBox="0 0 256 256" width="256" height="256">
  <rect width="256" height="256" fill="#6b1a2a"/>
  <g fill="#c8a060" opacity="0.7">
    <path d="M128,256 Q128,200 80,170 Q30,140 30,80 Q30,140 80,140 Q128,140 128,80 Z"/>
    <path d="M128,256 Q128,200 176,170 Q226,140 226,80 Q226,140 176,140 Q128,140 128,80 Z"/>
    <path d="M128,256 Q90,230 50,220 Q10,210 10,160 Q40,180 80,180 Q120,180 128,160 Z"/>
    <path d="M128,256 Q166,230 206,220 Q246,210 246,160 Q216,180 176,180 Q136,180 128,160 Z"/>
  </g>
  <g fill="none" stroke="#c8a060" stroke-width="1.5">
    <path d="M128,256 Q128,200 80,170"/>
    <path d="M128,256 Q128,200 176,170"/>
    <path d="M128,256 Q90,230 50,220"/>
    <path d="M128,256 Q166,230 206,220"/>
    <circle cx="128" cy="256" r="4" fill="#c8a060"/>
  </g>
</svg>